<svg width="1000" height="1000" viewBox="0 0 1000 1000" xmlns="http://www.w3.org/2000/svg">
  <rect width="1000" height="1000" fill="#1E3A2E"/>
  <rect x="70" y="70" width="860" height="860" fill="none" stroke="#B68A3E" stroke-width="2" opacity="0.55"/>
  <text x="500" y="620" text-anchor="middle" font-family="'Cormorant Garamond', Georgia, serif" font-weight="600" font-size="575" fill="#F4EFE2">W</text>
  <g transform="translate(702 300) rotate(28) scale(1.05)">
    <path d="M0 -14 C -19 -36, -15 -74, 0 -92 C 15 -74, 19 -36, 0 -14 Z" fill="#CBA15A"/>
    <polygon points="0,2 -3.2,-15 3.2,-15" fill="#B68A3E"/>
    <line x1="0" y1="-16" x2="0" y2="-88" stroke="#1E3A2E" stroke-width="4"/>
    <line x1="0" y1="-44" x2="-12" y2="-53" stroke="#1E3A2E" stroke-width="3"/>
    <line x1="0" y1="-44" x2="12" y2="-53" stroke="#1E3A2E" stroke-width="3"/>
    <line x1="0" y1="-56" x2="-12" y2="-65" stroke="#1E3A2E" stroke-width="3"/>
    <line x1="0" y1="-56" x2="12" y2="-65" stroke="#1E3A2E" stroke-width="3"/>
    <line x1="0" y1="-68" x2="-12" y2="-77" stroke="#1E3A2E" stroke-width="3"/>
    <line x1="0" y1="-68" x2="12" y2="-77" stroke="#1E3A2E" stroke-width="3"/>
    <line x1="0" y1="-78" x2="-10" y2="-86" stroke="#1E3A2E" stroke-width="3"/>
    <line x1="0" y1="-78" x2="10" y2="-86" stroke="#1E3A2E" stroke-width="3"/>
  </g>
  <text x="500" y="780" text-anchor="middle" font-family="'Cormorant Garamond', Georgia, serif" font-weight="500" font-size="75" letter-spacing="13" fill="#F4EFE2">LIVING WORDS</text>
  <text x="500" y="842" text-anchor="middle" font-family="'Cormorant Garamond', Georgia, serif" font-weight="500" font-size="42" letter-spacing="27" fill="#B68A3E">MUSIC</text>
</svg>